{"glyphs":{"0":{"ha":722,"x_min":34,"x_max":687,"o":"m 687 350 q 687 201 637 282 q 637 192 687 238 q 612 118 611 139 q 485 -18 550 24 q 367 -53 419 -50 q 98 73 193 -57 q 34 350 34 193 q 64 526 34 446 q 92 588 72 550 q 218 732 119 694 q 367 769 268 769 q 499 741 452 769 q 622 626 568 713 q 687 350 687 539 m 526 341 q 526 485 517 407 q 501 606 524 556 q 367 672 457 672 q 241 606 276 672 q 208 520 214 566 q 200 434 203 474 q 198 350 198 393 q 199 262 198 307 q 207 173 203 218 q 239 87 214 132 q 367 21 276 21 q 494 87 457 21 q 518 198 518 126 q 526 341 526 271 m 684 934 l 488 934 l 316 742 l 176 742 l 363 934 l 167 934 l 71 839 l -16 839 l 93 1000 l 206 1000 l 219 985 l 387 985 l 398 1000 l 753 1000 l 684 934 z "},"1":{"ha":722,"x_min":113,"x_max":607,"o":"m 607 0 l 434 0 l 434 606 l 113 606 l 113 733 q 298 742 254 733 q 385 779 343 750 q 432 868 428 814 l 607 868 l 607 0 z "},"2":{"ha":722,"x_min":48,"x_max":652,"o":"m 652 0 l 48 0 q 58 128 48 82 q 101 207 68 169 q 206 288 140 243 q 369 373 272 322 q 471 461 430 418 q 516 563 516 519 q 469 653 516 621 q 364 686 423 686 q 226 641 285 686 q 162 508 162 596 l 51 508 q 64 694 51 628 q 226 786 93 786 q 389 742 311 786 q 500 622 468 699 q 533 569 519 601 q 547 517 547 538 q 466 339 547 401 q 262 250 407 292 q 152 180 177 208 q 131 140 131 153 l 652 140 l 652 0 z "},"3":{"ha":722,"x_min":52,"x_max":644,"o":"m 644 222 q 630 83 644 130 q 516 -12 600 22 q 364 -46 443 -46 q 198 0 275 -46 q 52 169 52 61 l 167 169 q 205 82 167 117 q 300 48 244 48 q 426 117 382 48 q 461 251 461 183 q 399 389 461 341 q 254 418 347 418 l 213 418 l 213 538 l 264 538 q 407 567 353 538 q 456 689 456 600 q 432 759 456 732 q 361 786 407 786 q 259 749 293 786 q 224 652 224 713 l 113 652 q 126 803 113 751 q 256 886 165 886 q 429 836 357 886 q 522 690 501 786 q 525 664 525 675 q 526 642 526 653 q 505 538 526 571 q 435 458 484 494 q 561 350 531 433 q 644 222 644 281 z "},"4":{"ha":722,"x_min":42,"x_max":671,"o":"m 671 0 l 545 0 l 545 186 l 42 186 l 42 318 l 545 866 l 545 868 l 671 868 l 671 318 l 818 318 l 818 186 l 671 186 l 671 0 z m 545 318 l 545 640 l 267 318 l 545 318 z "},"5":{"ha":722,"x_min":62,"x_max":644,"o":"m 644 272 q 630 91 644 149 q 500 -10 600 33 q 342 -46 429 -46 q 171 4 245 -46 q 62 152 62 68 l 177 152 q 214 74 177 104 q 310 40 256 40 q 439 110 396 40 q 479 255 479 180 q 439 399 479 331 q 315 470 382 470 q 227 447 275 470 q 162 374 179 424 l 71 374 l 102 868 l 587 868 l 587 734 l 217 734 l 202 503 q 273 540 232 527 q 351 553 314 553 q 519 474 451 553 q 618 298 618 406 q 644 272 631 282 z "},"6":{"ha":722,"x_min":87,"x_max":667,"o":"m 667 265 q 649 114 667 174 q 536 0 624 53 q 371 -46 458 -46 q 142 82 230 -46 q 87 340 87 196 q 126 594 87 483 q 264 777 171 705 q 464 834 351 834 q 618 779 552 834 q 667 648 667 724 l 556 648 q 522 717 553 689 q 452 746 491 746 q 350 696 389 746 q 290 591 310 647 q 255 453 271 536 q 332 510 290 487 q 424 534 374 534 q 613 420 543 534 q 667 265 667 357 m 526 265 q 499 381 526 338 q 382 429 460 429 q 268 374 310 429 q 236 247 236 319 q 269 122 236 176 q 383 67 311 67 q 492 111 453 67 q 526 265 526 156 z "},"7":{"ha":722,"x_min":60,"x_max":645,"o":"m 645 734 q 464 379 645 734 q 277 0 277 0 l 135 0 l 457 734 l 60 734 l 60 868 l 645 868 l 645 734 z "},"8":{"ha":722,"x_min":73,"x_max":649,"o":"m 649 253 q 620 119 649 168 q 520 26 592 57 q 373 -7 449 -7 q 216 32 288 -7 q 108 135 143 71 q 73 274 73 199 q 110 402 73 347 q 224 504 144 463 q 153 577 177 536 q 125 673 125 627 q 195 818 125 765 q 361 868 265 868 q 533 815 459 868 q 607 662 607 758 q 583 569 607 615 q 525 509 561 532 q 611 405 583 478 q 649 253 649 339 m 483 656 q 462 734 483 705 q 382 769 434 769 q 301 736 330 769 q 279 660 279 704 q 300 583 279 611 q 378 553 322 553 q 460 583 435 553 q 483 656 483 611 m 507 255 q 474 355 507 313 q 373 399 442 399 q 276 352 307 399 q 243 252 243 306 q 272 150 243 195 q 373 101 307 101 q 473 145 440 101 q 507 255 507 192 z "},"9":{"ha":722,"x_min":77,"x_max":668,"o":"m 668 532 q 618 194 668 325 q 450 -38 568 62 q 249 -96 366 -96 q 104 -53 160 -96 q 77 80 77 -7 l 191 80 q 222 7 191 34 q 293 -21 253 -21 q 413 24 368 -21 q 480 132 457 71 q 518 289 501 193 q 432 231 481 254 q 340 207 383 207 q 152 319 222 207 q 98 482 98 390 q 146 726 98 629 q 302 886 200 823 q 500 939 399 939 q 612 913 570 939 q 665 820 665 887 l 551 820 q 522 873 546 854 q 468 893 498 893 q 341 833 389 893 q 306 683 306 778 q 310 653 306 668 q 320 624 314 638 q 428 569 354 569 q 544 629 497 569 q 585 769 585 689 l 585 790 l 585 797 q 586 807 586 804 l 668 807 q 668 720 668 769 q 668 532 668 643 m 527 514 q 496 609 527 568 q 397 649 457 649 q 306 609 339 649 q 277 507 277 569 q 310 400 277 440 q 409 360 342 360 q 503 397 468 360 q 527 514 527 442 z "},"-":{"ha":833,"x_min":104,"x_max":729,"o":"m 729 329 l 104 329 l 104 442 l 729 442 l 729 329 z "},".":{"ha":278,"x_min":68,"x_max":210,"o":"m 210 0 l 68 0 l 68 146 l 210 146 l 210 0 z "},"/":{"ha":278,"x_min":-88,"x_max":366,"o":"m 366 908 l 92 -124 l -88 -124 l 188 908 l 366 908 z "},"A":{"ha":722,"x_min":0,"x_max":722,"o":"m 722 0 l 582 0 l 499 232 l 224 232 l 141 0 l 0 0 l 299 868 l 421 868 l 722 0 z m 468 355 l 362 660 l 257 355 l 468 355 z "},"B":{"ha":722,"x_min":82,"x_max":640,"o":"m 640 250 q 611 118 640 161 q 499 34 576 60 q 347 8 423 8 l 82 8 l 82 868 l 342 868 q 488 841 427 868 q 600 751 549 814 q 631 618 631 688 q 607 524 631 569 q 542 458 583 479 q 636 350 608 429 q 640 250 640 308 m 483 622 q 443 718 483 681 q 341 746 404 746 l 202 746 l 202 500 l 331 500 q 443 531 399 500 q 483 622 483 562 m 507 257 q 465 363 507 320 q 354 401 424 401 l 202 401 l 202 109 l 357 109 q 463 143 422 109 q 507 257 507 185 z "},"C":{"ha":722,"x_min":55,"x_max":675,"o":"m 675 272 q 652 99 675 167 q 541 2 618 32 q 382 -31 464 -31 q 162 55 250 -31 q 55 347 55 156 q 91 579 55 471 q 208 775 133 688 q 400 844 283 844 q 554 808 490 844 q 654 693 619 772 q 675 520 675 622 l 553 520 q 534 645 553 602 q 450 706 510 706 q 348 664 387 706 q 283 522 310 622 q 260 350 260 422 q 278 199 260 257 q 349 104 301 140 q 460 71 397 71 q 548 135 518 71 q 575 257 575 186 l 675 257 l 675 272 z "},"D":{"ha":722,"x_min":82,"x_max":687,"o":"m 687 436 q 619 123 687 254 q 426 0 545 0 l 82 0 l 82 868 l 385 868 q 611 758 518 868 q 687 436 687 634 m 564 437 q 529 608 564 532 q 410 721 486 684 q 339 734 379 734 l 202 734 l 202 132 l 354 132 q 500 216 446 132 q 554 437 554 292 q 557 484 554 453 q 564 533 561 514 z "},"E":{"ha":667,"x_min":82,"x_max":607,"o":"m 607 0 l 82 0 l 82 868 l 589 868 l 589 734 l 202 734 l 202 500 l 557 500 l 557 374 l 202 374 l 202 132 l 607 132 l 607 0 z "},"F":{"ha":611,"x_min":82,"x_max":560,"o":"m 560 734 l 202 734 l 202 500 l 521 500 l 521 374 l 202 374 l 202 0 l 82 0 l 82 868 l 560 868 l 560 734 z "},"G":{"ha":778,"x_min":55,"x_max":697,"o":"m 697 0 l 622 0 l 601 79 q 467 -31 569 8 q 322 -31 390 -31 q 147 49 213 -31 q 67 253 67 130 q 114 551 67 437 q 280 771 174 690 q 505 844 386 844 q 662 806 597 844 q 697 709 697 768 l 573 709 q 550 752 566 737 q 478 771 526 771 q 339 710 390 771 q 263 556 288 650 q 240 350 240 462 q 242 299 240 329 q 250 247 244 269 q 295 142 261 185 q 403 80 329 80 q 522 139 474 80 q 569 272 569 199 l 410 272 l 410 401 l 697 401 l 697 0 z "},"H":{"ha":778,"x_min":82,"x_max":696,"o":"m 696 0 l 576 0 l 576 374 l 202 374 l 202 0 l 82 0 l 82 868 l 202 868 l 202 500 l 576 500 l 576 868 l 696 868 l 696 0 z "},"I":{"ha":333,"x_min":41,"x_max":292,"o":"m 292 0 l 41 0 l 41 109 l 136 109 l 136 759 l 41 759 l 41 868 l 292 868 l 292 759 l 197 759 l 197 109 l 292 109 l 292 0 z "},"J":{"ha":611,"x_min":21,"x_max":533,"o":"m 533 264 q 494 68 533 141 q 349 -33 455 2 q 277 -46 316 -43 q 146 -14 201 -46 q 55 85 91 24 q 21 243 21 145 l 134 243 q 148 153 134 189 q 209 89 166 108 q 283 74 247 74 q 377 115 341 74 q 412 257 412 156 l 412 868 l 533 868 l 533 264 z "},"K":{"ha":667,"x_min":82,"x_max":697,"o":"m 697 0 l 548 0 l 329 405 l 202 271 l 202 0 l 82 0 l 82 868 l 202 868 l 202 438 l 519 868 l 667 868 l 415 538 l 697 0 z "},"L":{"ha":556,"x_min":82,"x_max":556,"o":"m 556 0 l 82 0 l 82 868 l 202 868 l 202 132 l 556 132 l 556 0 z "},"M":{"ha":944,"x_min":82,"x_max":862,"o":"m 862 0 l 741 0 l 741 729 l 559 0 l 384 0 l 202 729 l 202 0 l 82 0 l 82 868 l 262 868 l 470 109 l 674 868 l 862 868 l 862 0 z "},"N":{"ha":722,"x_min":82,"x_max":641,"o":"m 641 0 l 505 0 l 202 659 l 202 0 l 82 0 l 82 868 l 222 868 l 520 215 l 520 868 l 641 868 l 641 0 z "},"O":{"ha":778,"x_min":55,"x_max":724,"o":"m 724 350 q 681 99 724 203 q 520 -31 631 -31 q 399 -8 458 -31 q 308 60 340 14 q 248 -26 308 14 q 50 -69 169 -69 l 52 73 q 105 94 89 73 q 140 137 122 114 q 106 243 106 186 l 106 350 q 132 568 106 478 q 224 742 158 659 q 387 843 290 813 q 520 868 449 868 q 681 738 631 868 q 724 488 724 617 q 724 350 724 422 m 582 350 q 567 517 582 442 q 510 648 551 593 q 389 702 461 702 q 274 649 322 702 q 214 515 227 597 q 200 350 200 433 q 202 245 200 292 q 211 142 204 179 q 247 36 221 82 q 361 -17 286 -17 q 484 37 431 -17 q 538 176 538 91 q 582 350 582 262 z "},"P":{"ha":667,"x_min":82,"x_max":640,"o":"m 640 557 q 594 367 640 440 q 448 269 548 294 q 300 253 389 253 l 202 253 l 202 0 l 82 0 l 82 868 l 312 868 q 505 841 434 868 q 602 713 576 814 q 640 557 640 630 m 516 557 q 477 669 516 628 q 361 711 438 711 l 202 711 l 202 389 l 327 389 q 451 420 399 389 q 516 557 516 470 z "},"Q":{"ha":778,"x_min":55,"x_max":727,"o":"m 727 -52 l 633 -141 l 445 63 q 338 0 389 23 q 218 -24 288 -24 q 55 103 104 -24 q 52 360 14 227 q 134 713 52 600 q 393 868 226 868 q 556 737 507 868 q 592 524 592 657 q 578 326 592 408 q 538 158 563 244 l 727 -52 m 582 350 q 566 525 582 444 q 507 656 548 606 q 389 702 463 702 q 272 649 319 702 q 213 515 225 597 q 200 350 200 433 q 201 258 200 294 q 215 134 202 222 q 272 8 235 57 q 389 -38 313 -38 q 506 9 456 -38 q 564 141 556 57 q 582 350 582 240 z "},"R":{"ha":722,"x_min":82,"x_max":676,"o":"m 676 0 l 546 0 l 289 369 l 202 369 l 202 0 l 82 0 l 82 868 l 350 868 q 516 838 449 868 q 627 727 583 808 q 660 572 660 647 q 621 432 660 497 q 518 340 582 367 l 676 0 z m 536 576 q 497 674 536 638 q 394 704 458 704 l 202 704 l 202 472 l 364 472 q 475 499 430 472 q 536 576 536 526 z "},"S":{"ha":667,"x_min":60,"x_max":611,"o":"m 611 258 q 565 79 611 141 q 389 -29 511 -29 q 205 13 273 -29 q 87 169 114 55 l 198 169 q 259 76 209 111 q 371 48 309 48 q 482 92 438 48 q 527 210 527 136 q 473 312 527 278 q 288 370 429 345 q 107 450 147 403 q 60 601 60 508 q 104 768 60 704 q 268 868 149 868 q 440 819 372 868 q 536 683 511 771 q 540 660 538 674 l 425 660 q 390 732 421 703 q 311 761 360 761 q 210 724 250 761 q 171 630 171 688 q 220 531 171 566 q 400 474 271 503 q 583 391 540 445 q 611 258 611 337 z "},"T":{"ha":611,"x_min":-6,"x_max":617,"o":"m 617 734 l 367 734 l 367 0 l 244 0 l 244 734 l -6 734 l -6 868 l 617 868 l 617 734 z "},"U":{"ha":722,"x_min":78,"x_max":646,"o":"m 646 315 q 611 81 646 174 q 403 -31 546 -31 q 197 82 262 -31 q 78 315 123 144 l 78 868 l 202 868 l 202 311 q 248 152 202 203 q 404 64 300 64 q 556 151 506 64 q 598 311 598 203 l 598 868 l 646 868 l 646 315 z "},"V":{"ha":667,"x_min":-8,"x_max":674,"o":"m 674 868 l 405 0 l 262 0 l -8 868 l 119 868 l 333 118 l 540 868 l 674 868 z "},"W":{"ha":944,"x_min":-4,"x_max":948,"o":"m 948 868 l 732 0 l 602 0 l 473 716 l 344 0 l 214 0 l -4 868 l 125 868 l 274 150 l 405 868 l 538 868 l 668 150 l 820 868 l 948 868 z "},"X":{"ha":667,"x_min":0,"x_max":667,"o":"m 667 0 l 524 0 l 338 373 l 143 0 l 0 0 l 263 450 l 10 868 l 150 868 l 338 517 l 523 868 l 664 868 l 414 450 l 667 0 z "},"Y":{"ha":667,"x_min":-8,"x_max":675,"o":"m 675 868 l 396 348 l 396 0 l 271 0 l 271 348 l -8 868 l 120 868 l 333 493 l 547 868 l 675 868 z "},"Z":{"ha":667,"x_min":38,"x_max":629,"o":"m 629 0 l 38 0 l 38 102 l 461 734 l 55 734 l 55 868 l 610 868 l 610 766 l 182 134 l 629 134 l 629 0 z "},"a":{"ha":667,"x_min":53,"x_max":593,"o":"m 593 0 l 472 0 q 456 66 465 28 q 327 8 403 8 q 131 124 206 8 q 53 365 53 232 q 124 624 53 505 q 334 759 206 759 q 461 714 410 759 q 533 601 512 669 l 533 741 l 593 741 l 593 0 z m 533 375 q 528 497 533 449 q 492 599 524 544 q 396 657 457 657 q 274 590 321 657 q 240 465 240 532 l 240 369 q 270 218 240 274 q 375 157 307 157 q 476 215 444 157 q 519 341 519 267 q 533 375 521 362 z "},"b":{"ha":667,"x_min":71,"x_max":643,"o":"m 643 365 q 565 125 643 237 q 371 8 488 8 q 245 51 297 8 q 167 162 192 94 l 167 0 l 71 0 l 71 1000 l 192 1000 l 192 641 q 270 731 216 701 q 380 761 323 761 q 567 641 494 761 q 643 365 643 532 m 521 365 q 476 530 521 464 q 372 602 432 602 q 265 530 311 602 q 221 365 221 464 q 265 199 221 266 q 370 127 310 127 q 476 199 429 127 q 521 365 521 266 z "},"c":{"ha":667,"x_min":53,"x_max":623,"o":"m 623 268 q 594 109 623 168 q 468 17 554 39 q 356 -12 411 -12 q 129 93 215 -12 q 53 354 53 196 q 119 616 53 513 q 337 729 200 729 q 566 602 490 729 q 623 364 623 493 l 506 364 q 470 514 506 455 q 356 585 425 585 q 247 520 289 585 q 214 354 214 450 q 248 190 214 261 q 358 123 289 123 q 471 195 425 123 q 506 345 506 267 l 623 345 l 623 268 z "},"d":{"ha":667,"x_min":53,"x_max":596,"o":"m 596 0 l 500 0 l 500 162 q 418 51 476 92 q 289 10 360 10 q 97 126 172 10 q 53 354 53 224 q 130 618 53 506 q 328 729 208 729 q 456 687 405 729 q 533 579 507 645 l 533 1000 l 596 1000 l 596 0 z m 513 365 q 468 530 513 464 q 364 602 424 602 q 259 533 303 602 q 219 372 219 465 q 262 200 219 266 q 364 127 303 127 q 468 200 425 127 q 513 365 513 266 z "},"e":{"ha":667,"x_min":56,"x_max":613,"o":"m 613 317 l 205 317 q 235 191 205 238 q 341 140 272 140 q 453 198 409 140 q 485 303 485 241 l 600 303 q 548 118 600 189 q 347 -10 478 -10 q 129 110 210 -10 q 56 360 56 210 q 119 617 56 515 q 331 729 198 729 q 561 602 486 729 q 613 317 613 482 m 485 401 q 456 537 485 482 q 347 601 418 601 q 243 535 284 601 q 205 401 205 497 l 485 401 z "},"f":{"ha":389,"x_min":0,"x_max":441,"o":"m 441 641 l 276 641 l 276 0 l 156 0 l 156 641 l 0 641 l 0 741 l 156 741 l 156 796 q 231 982 156 911 q 417 1042 300 1042 l 441 1042 l 441 915 l 395 915 q 296 875 332 915 q 266 779 266 836 l 266 741 l 441 741 l 441 641 z "},"g":{"ha":667,"x_min":56,"x_max":593,"o":"m 593 -11 q 531 -211 593 -136 q 338 -290 463 -290 q 138 -207 210 -290 q 56 -6 56 -122 l 171 -6 q 216 -133 171 -89 q 338 -185 260 -185 q 452 -142 405 -185 q 493 -24 493 -97 q 493 90 493 21 q 421 0 464 38 q 307 -32 366 -32 q 119 68 193 -32 q 56 309 56 173 q 134 585 56 477 q 343 707 217 707 q 468 668 410 707 q 548 564 525 629 l 548 689 l 593 689 l 593 -11 z m 493 345 q 455 510 493 444 q 346 586 418 586 q 240 513 278 586 q 203 352 203 441 q 236 193 203 259 q 345 122 278 122 q 454 193 415 122 q 493 345 493 254 z "},"h":{"ha":667,"x_min":71,"x_max":596,"o":"m 596 0 l 476 0 l 476 420 q 437 537 476 489 q 331 585 398 585 q 229 539 274 585 q 186 425 186 493 l 186 0 l 71 0 l 71 1000 l 186 1000 l 186 641 q 272 731 218 701 q 395 761 326 761 q 564 677 502 761 q 596 493 596 610 l 596 0 z "},"i":{"ha":278,"x_min":92,"x_max":194,"o":"m 194 793 l 92 793 l 92 917 l 194 917 l 194 793 z m 194 0 l 92 0 l 92 689 l 194 689 l 194 0 z "},"j":{"ha":278,"x_min":-92,"x_max":194,"o":"m 194 793 l 92 793 l 92 917 l 194 917 l 194 793 z m 194 18 q 122 -189 194 -108 q -88 -263 51 -263 l -92 -263 l -92 -153 l -54 -153 q 46 -116 7 -153 q 92 -12 92 -86 l 92 689 l 194 689 l 194 18 z "},"k":{"ha":611,"x_min":71,"x_max":613,"o":"m 613 0 l 459 0 l 289 320 l 186 214 l 186 0 l 71 0 l 71 689 l 186 689 l 186 353 l 442 689 l 594 689 l 351 399 l 613 0 z "},"l":{"ha":278,"x_min":93,"x_max":185,"o":"m 185 0 l 93 0 l 93 1000 l 185 1000 l 185 0 z "},"m":{"ha":944,"x_min":71,"x_max":873,"o":"m 873 0 l 754 0 l 754 434 q 725 536 754 495 q 632 585 689 585 q 539 535 576 585 q 510 430 510 486 l 510 0 l 389 0 l 389 441 q 361 539 389 501 q 270 585 326 585 q 176 535 215 585 q 146 430 146 486 l 146 0 l 71 0 l 71 686 l 146 686 l 146 616 q 226 697 175 669 q 332 726 276 726 q 444 694 393 726 q 518 601 500 663 q 597 693 542 661 q 711 726 651 726 q 857 665 800 726 q 873 501 873 606 l 873 0 z "},"n":{"ha":667,"x_min":71,"x_max":596,"o":"m 596 0 l 476 0 l 476 416 q 440 536 476 489 q 334 585 397 585 q 229 538 273 585 q 186 425 186 493 l 186 0 l 71 0 l 71 686 l 186 686 l 186 616 q 276 700 222 669 q 397 730 330 730 q 565 668 502 730 q 596 492 596 606 l 596 0 z "},"o":{"ha":667,"x_min":53,"x_max":613,"o":"m 613 343 q 549 90 613 194 q 343 -16 472 -16 q 129 96 210 -16 q 53 350 53 196 q 117 604 53 501 q 324 718 194 718 q 539 605 457 718 q 613 343 613 497 m 486 343 q 452 516 486 449 q 341 593 413 593 q 231 518 270 593 q 187 343 187 443 q 224 176 187 243 q 338 98 264 98 q 449 171 410 98 q 486 343 486 240 z "},"p":{"ha":667,"x_min":71,"x_max":643,"o":"m 643 343 q 567 93 643 206 q 369 -16 492 -16 q 243 24 296 -16 q 167 123 190 64 l 167 -278 l 71 -278 l 71 686 l 167 686 l 167 569 q 248 675 199 640 q 374 710 297 710 q 565 596 492 710 q 643 343 643 493 m 521 343 q 478 510 521 444 q 372 582 436 582 q 268 510 308 582 q 224 343 224 443 q 267 176 224 242 q 374 105 311 105 q 479 176 435 105 q 521 343 521 242 z "},"q":{"ha":667,"x_min":53,"x_max":596,"o":"m 596 -278 l 500 -278 l 500 126 q 421 23 474 60 q 294 -16 367 -16 q 100 95 173 -16 q 53 345 53 202 q 134 601 53 493 q 330 710 212 710 q 457 669 402 710 q 533 569 512 629 l 533 686 l 596 686 l 596 -278 z m 515 343 q 470 509 515 444 q 363 582 429 582 q 258 510 300 582 q 214 345 214 443 q 258 177 214 244 q 365 105 300 105 q 470 178 431 105 q 515 343 515 244 z "},"r":{"ha":389,"x_min":71,"x_max":414,"o":"m 414 587 q 392 589 406 587 q 372 590 378 590 q 257 536 297 590 q 206 411 206 489 l 206 0 l 71 0 l 71 686 l 189 686 l 189 593 q 254 691 206 658 q 355 724 297 724 l 414 724 l 414 587 z "},"s":{"ha":556,"x_min":46,"x_max":514,"o":"m 514 219 q 472 68 514 119 q 339 -10 431 -10 q 187 25 244 -10 q 86 143 111 60 q 81 171 82 160 l 198 171 q 225 106 205 126 q 289 84 244 84 q 360 113 329 84 q 387 188 387 143 q 351 264 387 239 q 205 319 306 294 q 65 400 104 344 q 46 508 46 447 q 92 651 46 601 q 241 736 144 736 q 388 696 332 736 q 480 577 454 657 q 486 548 485 560 l 374 548 q 346 610 367 590 q 282 631 325 631 q 216 606 244 631 q 189 542 189 581 q 224 473 189 497 q 371 416 269 446 q 504 333 463 386 q 514 219 514 289 z "},"t":{"ha":333,"x_min":-2,"x_max":330,"o":"m 330 0 q 214 -10 253 0 q 148 77 148 25 l 148 602 l -2 602 l -2 700 l 148 700 l 148 904 l 263 904 l 263 700 l 330 700 l 330 602 l 263 602 l 263 120 q 270 92 263 104 q 296 82 277 82 l 330 82 l 330 0 z "},"u":{"ha":667,"x_min":71,"x_max":596,"o":"m 596 0 l 480 0 l 480 70 q 394 -13 453 18 q 270 -42 336 -42 q 101 19 163 -42 q 71 193 71 79 l 71 686 l 192 686 l 192 270 q 228 151 192 199 q 330 100 264 100 q 435 149 390 100 q 480 261 480 189 l 480 686 l 596 686 l 596 0 z "},"v":{"ha":611,"x_min":0,"x_max":611,"o":"m 611 686 l 360 0 l 256 0 l 0 686 l 122 686 l 308 104 l 493 686 l 611 686 z "},"w":{"ha":889,"x_min":0,"x_max":889,"o":"m 889 686 l 658 0 l 549 0 l 444 522 l 340 0 l 231 0 l 0 686 l 118 686 l 287 99 l 384 575 l 506 575 l 603 99 l 773 686 l 889 686 z "},"x":{"ha":611,"x_min":0,"x_max":611,"o":"m 611 0 l 485 0 l 306 270 l 126 0 l 0 0 l 230 356 l 16 686 l 138 686 l 305 429 l 472 686 l 595 686 l 381 356 l 611 0 z "},"y":{"ha":611,"x_min":-5,"x_max":616,"o":"m 616 686 l 345 -109 q 283 -235 333 -188 q 159 -278 233 -278 q 114 -274 139 -278 q 72 -260 90 -271 l 72 -134 q 103 -151 85 -143 q 138 -159 121 -159 q 205 -125 183 -159 q 225 -54 225 -99 q 217 -17 225 -36 l -5 686 l 117 686 l 300 84 l 480 686 l 616 686 z "},"z":{"ha":556,"x_min":31,"x_max":525,"o":"m 525 0 l 31 0 l 31 89 l 363 587 l 46 587 l 46 686 l 510 686 l 510 597 l 168 100 l 525 100 l 525 0 z "},"{":{"ha":389,"x_min":41,"x_max":340,"o":"m 340 -278 q 190 -247 235 -278 q 126 -130 138 -210 q 136 -80 133 -109 q 141 -26 139 -51 l 141 148 q 129 250 141 200 q 61 332 117 301 q 41 403 41 364 q 66 469 41 447 q 135 518 90 486 q 141 611 141 553 l 141 771 q 113 896 141 853 q 41 938 85 938 l 41 1000 q 190 969 136 1000 q 254 854 243 939 q 249 799 251 829 q 246 745 247 769 l 246 544 q 258 442 246 492 q 326 360 271 390 q 347 289 347 330 q 321 222 347 244 q 253 173 298 204 q 246 88 246 143 l 246 -99 q 274 -223 246 -181 q 340 -268 300 -268 l 340 -278 z "},"|":{"ha":280,"x_min":93,"x_max":187,"o":"m 187 -214 l 93 -214 l 93 886 l 187 886 l 187 -214 z "},"}":{"ha":389,"x_min":49,"x_max":349,"o":"m 349 364 q 331 298 349 320 q 263 248 313 275 q 256 155 256 214 l 256 -26 q 261 -80 256 -51 q 265 -130 265 -109 q 202 -247 265 -209 q 49 -278 136 -278 l 49 -268 q 115 -223 75 -268 q 143 -99 143 -181 l 143 84 q 137 177 143 125 q 70 227 120 200 q 49 293 49 271 q 70 365 49 343 q 137 417 89 389 q 143 513 143 444 l 143 738 q 113 872 143 829 q 49 917 88 917 l 49 928 q 201 897 147 928 q 265 779 253 867 q 259 723 261 749 q 256 671 258 698 l 256 490 q 263 397 256 439 q 331 347 278 354 q 349 281 349 317 z "}}}
